<svg width="136" height="27" viewBox="0 0 136 27" fill="none" xmlns="http://www.w3.org/2000/svg">
<path d="M10.7262 4.86165C9.07981 4.86165 8.71395 5.5868 8.71395 7.03709V9.5751H12.9213L12.5554 13.7447H8.71395V26.2535H3.592V13.7447H0.116394V9.5751H3.592V7.03709C3.592 2.8675 5.23835 0.692062 9.99444 0.692062H12.9213V4.49908L10.7262 4.86165ZM13.2871 17.3704C13.2871 12.657 15.4822 9.21253 20.2383 9.21253C22.7993 9.21253 24.2627 10.4815 24.9944 12.1131V9.5751H29.9335V26.2535H24.9944V23.7155C24.2627 25.347 22.6164 26.616 20.2383 26.616C15.4822 26.616 13.2871 23.1716 13.2871 18.4581V17.3704ZM18.4091 18.4581C18.4091 20.9962 19.3237 22.6277 21.7018 22.6277C24.0798 22.6277 24.8115 21.1774 24.8115 18.8207V17.1891C24.8115 14.8324 23.714 13.3821 21.7018 13.3821C19.6896 13.3821 18.4091 15.0137 18.4091 17.5517V18.4581ZM40.5432 9.21253C42.5554 9.21253 44.3847 9.5751 45.4823 10.3002L44.3847 13.926C43.2951 13.4308 42.1076 13.183 40.9091 13.2008C38.1652 13.2008 36.8847 14.8324 36.8847 17.5517V18.4581C36.8847 21.1774 38.1652 22.809 40.9091 22.809C42.1076 22.8268 43.2951 22.5791 44.3847 22.0839L45.4823 25.7096C44.3847 26.4348 42.5554 26.7973 40.5432 26.7973C34.5066 26.7973 31.7627 23.5342 31.7627 18.4581V17.733C31.7627 12.4757 34.5066 9.21253 40.5432 9.21253ZM46.031 18.6394V17.1891C46.031 12.4757 48.7749 9.39382 54.2627 9.39382C59.7505 9.39382 61.7627 12.4757 61.7627 17.1891V19.9084H51.153C51.3359 22.2652 52.2505 23.1716 55.1774 23.1716C58.1042 23.1716 59.0188 22.809 60.6652 22.0839L61.5798 25.5283C60.2993 26.2535 57.5554 26.7973 54.9944 26.7973C48.4091 26.616 46.031 23.5342 46.031 18.6394ZM51.153 16.464H57.3725V16.1014C57.3725 14.2886 56.6408 12.8383 54.4457 12.8383C52.2505 12.8383 51.153 14.1073 51.153 16.464ZM80.6042 18.4581C80.6042 23.1716 78.4091 26.616 73.653 26.616C71.092 26.616 69.2627 25.347 68.714 23.7155V26.2535H63.9579V1.23592L69.0798 0.692062V11.7505C69.8115 10.3002 71.4579 9.03124 73.8359 9.03124C78.592 9.03124 80.7871 12.4757 80.7871 17.1891L80.6042 18.4581ZM75.4822 17.3704C75.4822 15.0137 74.5676 13.2008 72.1896 13.2008C69.8115 13.2008 68.8969 14.6511 68.8969 17.0079V18.8207C68.8969 21.1774 69.9944 22.6277 72.1896 22.6277C74.3847 22.6277 75.4822 20.8149 75.4822 18.4581V17.3704ZM82.4335 18.2769V17.3704C82.4335 12.657 85.1774 9.03124 90.8481 9.03124C96.5188 9.03124 99.2627 12.4757 99.2627 17.3704V18.2769C99.2627 22.9903 96.5188 26.616 90.8481 26.616C85.1774 26.616 82.4335 23.1716 82.4335 18.2769ZM94.1408 17.0079C94.1408 14.8324 93.2262 13.0195 90.8481 13.0195C88.4701 13.0195 87.5554 14.8324 87.5554 17.0079V18.6394C87.5554 20.8149 88.4701 22.6277 90.8481 22.6277C93.2262 22.6277 94.1408 20.8149 94.1408 18.6394V17.0079ZM100.726 18.2769V17.3704C100.726 12.657 103.47 9.03124 109.141 9.03124C114.812 9.03124 117.555 12.4757 117.555 17.3704V18.2769C117.555 22.9903 114.812 26.616 109.141 26.616C103.47 26.616 100.726 23.1716 100.726 18.2769ZM112.433 17.0079C112.433 14.8324 111.519 13.0195 109.141 13.0195C106.763 13.0195 105.848 14.8324 105.848 17.0079V18.6394C105.848 20.8149 106.763 22.6277 109.141 22.6277C111.519 22.6277 112.433 20.8149 112.433 18.6394V17.0079ZM124.507 17.5517L129.446 9.5751H134.933L129.629 17.733L135.116 26.2535H129.812L124.507 18.0956V26.2535H119.385V1.23592L124.507 0.692062V17.5517Z" fill="#9CB0C9"/>
</svg>
