<svg width="90" height="38" viewBox="0 0 90 38" fill="none" xmlns="http://www.w3.org/2000/svg">
<path d="M40 15.7807C40 24.4962 31.0457 22.8821 20 22.8821C8.9543 22.8821 0 24.4962 0 15.7807C0 7.06528 8.9543 0 20 0C31.0457 0 40 7.06528 40 15.7807Z" fill="#CED7E4"/>
<rect x="2" y="26" width="36" height="12" rx="6" fill="#CED7E4"/>
<path d="M50.3 28V13.6H52.86V28H50.3ZM60.3858 28.24C59.4258 28.24 58.5591 28.02 57.7858 27.58C57.0258 27.14 56.4191 26.5333 55.9658 25.76C55.5258 24.9733 55.3058 24.0667 55.3058 23.04C55.3058 22.0133 55.5324 21.1133 55.9858 20.34C56.4391 19.5533 57.0458 18.94 57.8058 18.5C58.5791 18.06 59.4458 17.84 60.4058 17.84C61.3524 17.84 62.2058 18.06 62.9658 18.5C63.7391 18.94 64.3458 19.5533 64.7858 20.34C65.2391 21.1133 65.4658 22.0133 65.4658 23.04C65.4658 24.0667 65.2391 24.9733 64.7858 25.76C64.3458 26.5333 63.7391 27.14 62.9658 27.58C62.1924 28.02 61.3324 28.24 60.3858 28.24ZM60.3858 26.02C61.0524 26.02 61.6324 25.7733 62.1258 25.28C62.6191 24.7733 62.8658 24.0267 62.8658 23.04C62.8658 22.0533 62.6191 21.3133 62.1258 20.82C61.6324 20.3133 61.0591 20.06 60.4058 20.06C59.7258 20.06 59.1391 20.3133 58.6458 20.82C58.1658 21.3133 57.9258 22.0533 57.9258 23.04C57.9258 24.0267 58.1658 24.7733 58.6458 25.28C59.1391 25.7733 59.7191 26.02 60.3858 26.02ZM71.4797 25.04C70.9997 25.04 70.553 24.9867 70.1397 24.88L69.3997 25.62C69.6264 25.74 69.933 25.84 70.3197 25.92C70.7064 26 71.333 26.08 72.1997 26.16C73.5197 26.28 74.4797 26.5933 75.0797 27.1C75.6797 27.6067 75.9797 28.3067 75.9797 29.2C75.9797 29.7867 75.8197 30.34 75.4997 30.86C75.1797 31.3933 74.6864 31.82 74.0197 32.14C73.353 32.4733 72.4997 32.64 71.4597 32.64C70.0464 32.64 68.9064 32.3733 68.0397 31.84C67.173 31.32 66.7397 30.5333 66.7397 29.48C66.7397 28.5867 67.173 27.8133 68.0397 27.16C67.773 27.04 67.5397 26.9133 67.3397 26.78C67.153 26.6467 66.9864 26.5067 66.8397 26.36V25.9L68.5797 24.06C67.8064 23.38 67.4197 22.5067 67.4197 21.44C67.4197 20.7733 67.5797 20.1667 67.8997 19.62C68.233 19.0733 68.6997 18.64 69.2997 18.32C69.8997 18 70.6264 17.84 71.4797 17.84C72.0397 17.84 72.5597 17.92 73.0397 18.08H76.7997V19.64L75.0997 19.76C75.3664 20.2667 75.4997 20.8267 75.4997 21.44C75.4997 22.1067 75.3397 22.7133 75.0197 23.26C74.6997 23.8067 74.233 24.24 73.6197 24.56C73.0197 24.88 72.3064 25.04 71.4797 25.04ZM71.4797 23.08C71.9997 23.08 72.4264 22.94 72.7597 22.66C73.1064 22.38 73.2797 21.98 73.2797 21.46C73.2797 20.94 73.1064 20.54 72.7597 20.26C72.4264 19.98 71.9997 19.84 71.4797 19.84C70.933 19.84 70.493 19.98 70.1597 20.26C69.8264 20.54 69.6597 20.94 69.6597 21.46C69.6597 21.98 69.8264 22.38 70.1597 22.66C70.493 22.94 70.933 23.08 71.4797 23.08ZM69.0797 29.22C69.0797 29.7133 69.3064 30.08 69.7597 30.32C70.2264 30.5733 70.793 30.7 71.4597 30.7C72.0997 30.7 72.6197 30.5667 73.0197 30.3C73.4197 30.0467 73.6197 29.7 73.6197 29.26C73.6197 28.9 73.4864 28.6 73.2197 28.36C72.9664 28.12 72.453 27.9733 71.6797 27.92C71.133 27.88 70.6264 27.82 70.1597 27.74C69.773 27.9533 69.493 28.1867 69.3197 28.44C69.1597 28.6933 69.0797 28.9533 69.0797 29.22ZM83.1858 28.24C82.2258 28.24 81.3591 28.02 80.5858 27.58C79.8258 27.14 79.2191 26.5333 78.7658 25.76C78.3258 24.9733 78.1058 24.0667 78.1058 23.04C78.1058 22.0133 78.3324 21.1133 78.7858 20.34C79.2391 19.5533 79.8458 18.94 80.6058 18.5C81.3791 18.06 82.2458 17.84 83.2058 17.84C84.1524 17.84 85.0058 18.06 85.7658 18.5C86.5391 18.94 87.1458 19.5533 87.5858 20.34C88.0391 21.1133 88.2658 22.0133 88.2658 23.04C88.2658 24.0667 88.0391 24.9733 87.5858 25.76C87.1458 26.5333 86.5391 27.14 85.7658 27.58C84.9924 28.02 84.1324 28.24 83.1858 28.24ZM83.1858 26.02C83.8524 26.02 84.4324 25.7733 84.9258 25.28C85.4191 24.7733 85.6658 24.0267 85.6658 23.04C85.6658 22.0533 85.4191 21.3133 84.9258 20.82C84.4324 20.3133 83.8591 20.06 83.2058 20.06C82.5258 20.06 81.9391 20.3133 81.4458 20.82C80.9658 21.3133 80.7258 22.0533 80.7258 23.04C80.7258 24.0267 80.9658 24.7733 81.4458 25.28C81.9391 25.7733 82.5191 26.02 83.1858 26.02Z" fill="#7B95B7"/>
</svg>
