<svg width="111" height="25" viewBox="0 0 111 25" fill="none" xmlns="http://www.w3.org/2000/svg">
<path d="M34.9825 4.26359C34.5798 2.76449 33.3939 1.57863 31.8948 1.17589C29.1875 0.437531 18.291 0.437531 18.291 0.437531C18.291 0.437531 7.39461 0.459905 4.68729 1.19827C3.18819 1.60101 2.00234 2.78686 1.59959 4.28596C0.883606 6.99329 0.883606 12.6541 0.883606 12.6541C0.883606 12.6541 0.883606 18.3148 1.62197 21.0445C2.02471 22.5436 3.21056 23.7295 4.70966 24.1322C7.41699 24.8706 18.3134 24.8706 18.3134 24.8706C18.3134 24.8706 29.2099 24.8706 31.9172 24.1322C33.4163 23.7295 34.6021 22.5436 35.0049 21.0445C35.7432 18.3372 35.7432 12.6541 35.7432 12.6541C35.7432 12.6541 35.7209 6.99329 34.9825 4.26359Z" fill="#9CB0C9"/>
<path d="M23.8623 12.6541L14.823 7.41841V17.8897L23.8623 12.6541Z" fill="white"/>
<path d="M51.4502 22.6555C50.7566 22.1856 50.2643 21.4697 49.9735 20.4852C49.6826 19.5007 49.5483 18.203 49.5483 16.5696V14.3545C49.5483 12.7212 49.705 11.3787 50.0406 10.3942C50.3762 9.38738 50.8908 8.67139 51.6068 8.2239C52.3228 7.7764 53.2402 7.53028 54.3813 7.53028C55.5 7.53028 56.4174 7.75403 57.0886 8.2239C57.7598 8.69376 58.2744 9.40975 58.5877 10.3942C58.9009 11.3787 59.0576 12.6988 59.0576 14.3322V16.5472C59.0576 18.1806 58.9009 19.4783 58.5877 20.4628C58.2744 21.4473 57.7822 22.1633 57.0886 22.6331C56.395 23.0806 55.4552 23.3267 54.2918 23.3267C53.0835 23.3491 52.1438 23.103 51.4502 22.6555ZM55.321 20.2614C55.5224 19.7692 55.6119 18.9413 55.6119 17.8226V13.0568C55.6119 11.9605 55.5224 11.155 55.321 10.6627C55.1196 10.1481 54.784 9.90199 54.3141 9.90199C53.8443 9.90199 53.531 10.1481 53.3297 10.6627C53.1283 11.1773 53.0388 11.9605 53.0388 13.0568V17.8226C53.0388 18.9413 53.1283 19.7692 53.3073 20.2614C53.4863 20.7537 53.8219 20.9998 54.3141 20.9998C54.784 20.9998 55.1196 20.7537 55.321 20.2614ZM104.366 16.6144V17.3975L104.456 19.6126C104.523 20.1048 104.635 20.4628 104.814 20.6865C104.993 20.9103 105.283 21.0222 105.664 21.0222C106.178 21.0222 106.536 20.8208 106.715 20.4181C106.917 20.0153 107.006 19.3441 107.029 18.4267L110.005 18.6057C110.027 18.74 110.027 18.919 110.027 19.1427C110.027 20.5523 109.647 21.6039 108.863 22.2975C108.08 22.9911 107.006 23.3491 105.597 23.3491C103.896 23.3491 102.71 22.8121 102.039 21.7605C101.368 20.7089 101.01 19.0532 101.01 16.8381V14.1308C101.01 11.8486 101.368 10.1705 102.062 9.11888C102.778 8.06727 103.986 7.53028 105.686 7.53028C106.872 7.53028 107.767 7.75403 108.394 8.17915C109.02 8.60426 109.468 9.2755 109.736 10.1929C110.005 11.1102 110.116 12.3632 110.116 13.9742V16.592H104.366V16.6144ZM104.814 10.1705C104.635 10.3942 104.523 10.7299 104.456 11.2221C104.388 11.7143 104.366 12.4527 104.366 13.4596V14.5559H106.872V13.4596C106.872 12.4751 106.85 11.7367 106.783 11.2221C106.715 10.7075 106.604 10.3495 106.425 10.1481C106.246 9.94674 105.977 9.83487 105.619 9.83487C105.239 9.85724 104.97 9.96912 104.814 10.1705ZM43.0821 16.3235L39.1665 2.18275H42.5898L43.9547 8.58189C44.3127 10.1705 44.5588 11.513 44.7378 12.6093H44.8273C44.9392 11.8038 45.2077 10.4837 45.6104 8.60426L47.02 2.18275H50.4433L46.483 16.3011V23.0806H43.1045V16.3235H43.0821Z" fill="#9CB0C9"/>
<path d="M70.1554 7.82115V23.103H67.4704L67.1795 21.2235H67.1124C66.3741 22.6331 65.2777 23.3491 63.8234 23.3491C62.8165 23.3491 62.0558 23.0135 61.5859 22.3423C61.0937 21.671 60.8699 20.6418 60.8699 19.2322V7.82115H64.3156V19.0308C64.3156 19.7021 64.3827 20.1943 64.5393 20.4852C64.696 20.776 64.9421 20.9103 65.2777 20.9103C65.5686 20.9103 65.8594 20.8208 66.1279 20.6418C66.3964 20.4628 66.5978 20.2167 66.7321 19.9482V7.82115H70.1554Z" fill="#9CB0C9"/>
<path d="M87.8089 7.82115V23.103H85.124L84.8331 21.2235H84.766C84.0276 22.6331 82.9313 23.3491 81.4769 23.3491C80.4701 23.3491 79.7093 23.0135 79.2395 22.3423C78.7472 21.671 78.5235 20.6418 78.5235 19.2322V7.82115H81.9692V19.0308C81.9692 19.7021 82.0363 20.1943 82.1929 20.4852C82.3495 20.776 82.5956 20.9103 82.9313 20.9103C83.2221 20.9103 83.513 20.8208 83.7815 20.6418C84.05 20.4628 84.2514 20.2167 84.3856 19.9482V7.82115H87.8089Z" fill="#9CB0C9"/>
<path d="M79.5079 4.9572H76.0846V23.103H72.7284V4.9572H69.3051V2.18275H79.4856V4.9572H79.5079ZM99.1752 10.26C98.9738 9.29788 98.6382 8.60426 98.1683 8.15677C97.6985 7.73166 97.072 7.50791 96.2441 7.50791C95.6176 7.50791 95.0135 7.68691 94.4765 8.0449C93.9172 8.40289 93.5144 8.87276 93.2012 9.4545H93.1788V1.39964H89.8674V23.0806H92.7089L93.0669 21.6263H93.1341C93.4026 22.1409 93.8053 22.5436 94.3199 22.8569C94.8616 23.1537 95.4699 23.3077 96.0875 23.3044C97.251 23.3044 98.1012 22.7674 98.6606 21.6934C99.1976 20.6194 99.4884 18.9413 99.4884 16.6815V14.265C99.4884 12.5646 99.3766 11.2221 99.1752 10.26ZM96.0204 16.5025C96.0204 17.6212 95.9756 18.4938 95.8861 19.1203C95.7966 19.7468 95.64 20.1943 95.4163 20.4628C95.1925 20.7313 94.9017 20.8655 94.5437 20.8655C94.2528 20.8655 94.0067 20.7984 93.7605 20.6642C93.5144 20.5299 93.3354 20.3286 93.1788 20.0601V11.3787C93.2907 10.9536 93.4921 10.618 93.7829 10.3495C94.0738 10.081 94.3647 9.94674 94.7003 9.94674C95.0583 9.94674 95.3268 10.081 95.5058 10.3495C95.7071 10.618 95.819 11.0878 95.9085 11.7367C95.9756 12.3856 96.0204 13.3029 96.0204 14.5112V16.5025Z" fill="#9CB0C9"/>
</svg>
